<svg xmlns="http://www.w3.org/2000/svg" viewBox="0 0 1000 1000" width="1000" height="1000"><defs><linearGradient id="sky" x2=".8" y2="1"><stop stop-color="#282b46"/><stop offset="1" stop-color="#777894"/></linearGradient><radialGradient id="moon"><stop stop-color="#fff8dc"/><stop offset=".68" stop-color="#f4ddad"/><stop offset="1" stop-color="#e4a482"/></radialGradient><filter id="blur"><feGaussianBlur stdDeviation="24"/></filter></defs><rect width="1000" height="1000" fill="url(#sky)"/><circle cx="410" cy="411" r="190" fill="#f4ddad" opacity=".07" filter="url(#blur)"/><circle cx="319" cy="105" r="2.5" fill="#f4ddad" opacity="0.44"/><circle cx="601" cy="216" r="2" fill="#f4ddad" opacity="0.37"/><circle cx="732" cy="575" r="1" fill="#f4ddad" opacity="0.71"/><circle cx="109" cy="279" r="1" fill="#f4ddad" opacity="0.83"/><circle cx="541" cy="156" r="2.5" fill="#f4ddad" opacity="0.61"/><circle cx="714" cy="161" r="1" fill="#f4ddad" opacity="0.62"/><circle cx="223" cy="285" r="2" fill="#f4ddad" opacity="0.63"/><circle cx="933" cy="324" r="1.5" fill="#f4ddad" opacity="0.81"/><circle cx="393" cy="273" r="1.5" fill="#f4ddad" opacity="0.44"/><circle cx="37" cy="128" r="2.5" fill="#f4ddad" opacity="0.81"/><circle cx="44" cy="641" r="2.5" fill="#f4ddad" opacity="0.40"/><circle cx="701" cy="168" r="2" fill="#f4ddad" opacity="0.73"/><circle cx="82" cy="381" r="2" fill="#f4ddad" opacity="0.52"/><circle cx="313" cy="242" r="1.5" fill="#f4ddad" opacity="0.40"/><circle cx="132" cy="645" r="2" fill="#f4ddad" opacity="0.69"/><circle cx="546" cy="530" r="2.5" fill="#f4ddad" opacity="0.72"/><circle cx="31" cy="474" r="2.5" fill="#f4ddad" opacity="0.45"/><circle cx="250" cy="330" r="1" fill="#f4ddad" opacity="0.75"/><circle cx="872" cy="57" r="1" fill="#f4ddad" opacity="0.54"/><circle cx="167" cy="241" r="2.5" fill="#f4ddad" opacity="0.83"/><circle cx="741" cy="500" r="2" fill="#f4ddad" opacity="0.46"/><circle cx="256" cy="475" r="1" fill="#f4ddad" opacity="0.60"/><circle cx="470" cy="569" r="1" fill="#f4ddad" opacity="0.42"/><circle cx="235" cy="389" r="2.5" fill="#f4ddad" opacity="0.81"/><circle cx="160" cy="305" r="2" fill="#f4ddad" opacity="0.46"/><circle cx="401" cy="366" r="1.5" fill="#f4ddad" opacity="0.40"/><circle cx="362" cy="573" r="2.5" fill="#f4ddad" opacity="0.39"/><circle cx="663" cy="380" r="1" fill="#f4ddad" opacity="0.81"/><circle cx="234" cy="205" r="1" fill="#f4ddad" opacity="0.82"/><circle cx="358" cy="366" r="2" fill="#f4ddad" opacity="0.75"/><circle cx="659" cy="604" r="1" fill="#f4ddad" opacity="0.66"/><circle cx="815" cy="493" r="1" fill="#f4ddad" opacity="0.83"/><circle cx="792" cy="381" r="2" fill="#f4ddad" opacity="0.82"/><circle cx="271" cy="467" r="1.5" fill="#f4ddad" opacity="0.79"/><circle cx="238" cy="343" r="1.5" fill="#f4ddad" opacity="0.70"/><circle cx="218" cy="232" r="1.5" fill="#f4ddad" opacity="0.53"/><circle cx="770" cy="386" r="1.5" fill="#f4ddad" opacity="0.85"/><circle cx="819" cy="157" r="1" fill="#f4ddad" opacity="0.61"/><circle cx="806" cy="355" r="1" fill="#f4ddad" opacity="0.74"/><circle cx="762" cy="64" r="2" fill="#f4ddad" opacity="0.52"/><circle cx="235" cy="478" r="2" fill="#f4ddad" opacity="0.49"/><circle cx="400" cy="581" r="1" fill="#f4ddad" opacity="0.57"/><circle cx="410" cy="411" r="155" fill="url(#moon)"/><circle cx="435" cy="378" r="111.6" fill="none" stroke="#fff6d8" opacity=".16" stroke-width="2"/><g fill="#f4ddad" opacity=".74"><path d="M349 672h302v122H349zM388 616h224v58H388zM323 613l177-73 177 73-23 19H346zM365 542l135-63 135 63-22 18H387z"/><path d="M420 670v-42h160v42M412 795V696h176v99" fill="#233047" opacity=".6"/><path d="M470 698v96m60-96v96" stroke="#f4ddad" stroke-width="8"/></g><path d="M93.75 555c27.0 -35.1 59.400000000000006 -33.75 74.25 -10.8c27.0 -58.050000000000004 101.25 -51.300000000000004 114.75000000000001 -2.7c32.400000000000006 -18.900000000000002 60.75000000000001 -8.100000000000001 78.30000000000001 13.5c-85.05000000000001 -1.35 -170.10000000000002 -1.35 -267.3 0Z" fill="#e4a482" opacity=".38"/><path d="M628.75 602c31.0 -40.300000000000004 68.2 -38.75 85.25 -12.4c31.0 -66.65 116.25 -58.9 131.75 -3.1c37.2 -21.7 69.75 -9.3 89.9 15.5c-97.65 -1.55 -195.3 -1.55 -306.90000000000003 0Z" fill="#f4ddad" opacity=".38"/><path d="M334.5 768c42.0 -54.6 92.4 -52.5 115.5 -16.8c42.0 -90.3 157.5 -79.8 178.5 -4.2c50.400000000000006 -29.400000000000002 94.5 -12.600000000000001 121.80000000000001 21.0c-132.3 -2.1 -264.6 -2.1 -415.8 0Z" fill="#e4a482" opacity=".38"/><path d="M0 875Q250 823 500 879T1000 852V1000H0Z" fill="#777894" opacity=".5"/><text x="500" y="912" text-anchor="middle" font-family="Noto Serif CJK SC,Source Han Serif SC,serif" font-size="42" letter-spacing="9" fill="#f4ddad">月宫·云梦</text><text x="500" y="952" text-anchor="middle" font-family="serif" font-size="15" letter-spacing="6" fill="#e4a482">MID-AUTUMN · 007</text></svg>