<svg xmlns="http://www.w3.org/2000/svg" viewBox="0 0 1000 1000" width="1000" height="1000"><defs><linearGradient id="sky" x2=".8" y2="1"><stop stop-color="#1f3047"/><stop offset="1" stop-color="#677b8a"/></linearGradient><radialGradient id="moon"><stop stop-color="#fff8dc"/><stop offset=".68" stop-color="#f8dcad"/><stop offset="1" stop-color="#ecc196"/></radialGradient><filter id="blur"><feGaussianBlur stdDeviation="24"/></filter></defs><rect width="1000" height="1000" fill="url(#sky)"/><circle cx="590" cy="306" r="190" fill="#f8dcad" opacity=".07" filter="url(#blur)"/><circle cx="549" cy="207" r="1.5" fill="#f8dcad" opacity="0.72"/><circle cx="452" cy="541" r="2.5" fill="#f8dcad" opacity="0.54"/><circle cx="903" cy="187" r="1" fill="#f8dcad" opacity="0.66"/><circle cx="952" cy="290" r="1.5" fill="#f8dcad" opacity="0.55"/><circle cx="42" cy="60" r="2" fill="#f8dcad" opacity="0.65"/><circle cx="389" cy="571" r="2" fill="#f8dcad" opacity="0.63"/><circle cx="794" cy="31" r="1" fill="#f8dcad" opacity="0.54"/><circle cx="818" cy="296" r="2" fill="#f8dcad" opacity="0.85"/><circle cx="155" cy="186" r="1" fill="#f8dcad" opacity="0.62"/><circle cx="166" cy="293" r="1" fill="#f8dcad" opacity="0.77"/><circle cx="589" cy="305" r="1" fill="#f8dcad" opacity="0.47"/><circle cx="176" cy="175" r="1" fill="#f8dcad" opacity="0.72"/><circle cx="100" cy="51" r="2.5" fill="#f8dcad" opacity="0.42"/><circle cx="297" cy="441" r="2" fill="#f8dcad" opacity="0.47"/><circle cx="506" cy="389" r="2.5" fill="#f8dcad" opacity="0.41"/><circle cx="305" cy="592" r="2" fill="#f8dcad" opacity="0.77"/><circle cx="838" cy="206" r="1.5" fill="#f8dcad" opacity="0.54"/><circle cx="75" cy="41" r="1.5" fill="#f8dcad" opacity="0.60"/><circle cx="336" cy="85" r="1.5" fill="#f8dcad" opacity="0.39"/><circle cx="399" cy="95" r="2.5" fill="#f8dcad" opacity="0.61"/><circle cx="879" cy="51" r="1" fill="#f8dcad" opacity="0.71"/><circle cx="861" cy="624" r="2" fill="#f8dcad" opacity="0.64"/><circle cx="876" cy="104" r="1.5" fill="#f8dcad" opacity="0.70"/><circle cx="189" cy="409" r="1" fill="#f8dcad" opacity="0.63"/><circle cx="763" cy="128" r="2.5" fill="#f8dcad" opacity="0.59"/><circle cx="451" cy="509" r="2.5" fill="#f8dcad" opacity="0.81"/><circle cx="413" cy="644" r="1" fill="#f8dcad" opacity="0.81"/><circle cx="159" cy="522" r="2" fill="#f8dcad" opacity="0.52"/><circle cx="87" cy="556" r="2" fill="#f8dcad" opacity="0.60"/><circle cx="76" cy="342" r="1" fill="#f8dcad" opacity="0.36"/><circle cx="384" cy="219" r="1" fill="#f8dcad" opacity="0.64"/><circle cx="947" cy="155" r="1.5" fill="#f8dcad" opacity="0.68"/><circle cx="97" cy="532" r="2.5" fill="#f8dcad" opacity="0.82"/><circle cx="454" cy="292" r="2.5" fill="#f8dcad" opacity="0.58"/><circle cx="145" cy="199" r="1.5" fill="#f8dcad" opacity="0.54"/><circle cx="638" cy="325" r="2.5" fill="#f8dcad" opacity="0.46"/><circle cx="406" cy="604" r="1.5" fill="#f8dcad" opacity="0.49"/><circle cx="688" cy="41" r="1" fill="#f8dcad" opacity="0.42"/><circle cx="652" cy="582" r="2" fill="#f8dcad" opacity="0.41"/><circle cx="132" cy="63" r="2" fill="#f8dcad" opacity="0.40"/><circle cx="575" cy="281" r="1" fill="#f8dcad" opacity="0.38"/><circle cx="226" cy="505" r="1" fill="#f8dcad" opacity="0.65"/><circle cx="590" cy="306" r="155" fill="url(#moon)"/><circle cx="615" cy="273" r="111.6" fill="none" stroke="#fff6d8" opacity=".16" stroke-width="2"/><g fill="#f8dcad" opacity=".9"><circle cx="506" cy="465" r="22"/><path d="M483 484q22 22 45 0l20 46-8 44 72 81q-53 5-97-31-37 36-116 39l71-92-7-47z"/><path d="M523 480q94 12 168-62-33 93-126 104z" opacity=".55"/><path d="M482 485q-64 7-104-30 39 59 94 72z" opacity=".55"/></g><path d="M93.75 555c27.0 -35.1 59.400000000000006 -33.75 74.25 -10.8c27.0 -58.050000000000004 101.25 -51.300000000000004 114.75000000000001 -2.7c32.400000000000006 -18.900000000000002 60.75000000000001 -8.100000000000001 78.30000000000001 13.5c-85.05000000000001 -1.35 -170.10000000000002 -1.35 -267.3 0Z" fill="#ecc196" opacity=".38"/><path d="M628.75 602c31.0 -40.300000000000004 68.2 -38.75 85.25 -12.4c31.0 -66.65 116.25 -58.9 131.75 -3.1c37.2 -21.7 69.75 -9.3 89.9 15.5c-97.65 -1.55 -195.3 -1.55 -306.90000000000003 0Z" fill="#f8dcad" opacity=".38"/><path d="M334.5 768c42.0 -54.6 92.4 -52.5 115.5 -16.8c42.0 -90.3 157.5 -79.8 178.5 -4.2c50.400000000000006 -29.400000000000002 94.5 -12.600000000000001 121.80000000000001 21.0c-132.3 -2.1 -264.6 -2.1 -415.8 0Z" fill="#ecc196" opacity=".38"/><path d="M0 875Q250 823 500 879T1000 852V1000H0Z" fill="#677b8a" opacity=".5"/><text x="500" y="912" text-anchor="middle" font-family="Noto Serif CJK SC,Source Han Serif SC,serif" font-size="42" letter-spacing="9" fill="#f8dcad">嫦娥·花影</text><text x="500" y="952" text-anchor="middle" font-family="serif" font-size="15" letter-spacing="6" fill="#ecc196">MID-AUTUMN · 024</text></svg>