<svg xmlns="http://www.w3.org/2000/svg" viewBox="0 0 1000 1000" width="1000" height="1000"><defs><linearGradient id="sky" x2=".8" y2="1"><stop stop-color="#17294d"/><stop offset="1" stop-color="#6079a5"/></linearGradient><radialGradient id="moon"><stop stop-color="#fff8dc"/><stop offset=".68" stop-color="#ffe8bc"/><stop offset="1" stop-color="#b8c9d4"/></radialGradient><filter id="blur"><feGaussianBlur stdDeviation="24"/></filter></defs><rect width="1000" height="1000" fill="url(#sky)"/><circle cx="650" cy="234" r="190" fill="#ffe8bc" opacity=".07" filter="url(#blur)"/><circle cx="923" cy="622" r="2.5" fill="#ffe8bc" opacity="0.79"/><circle cx="899" cy="151" r="1.5" fill="#ffe8bc" opacity="0.55"/><circle cx="183" cy="125" r="1.5" fill="#ffe8bc" opacity="0.57"/><circle cx="354" cy="153" r="2.5" fill="#ffe8bc" opacity="0.59"/><circle cx="437" cy="45" r="2" fill="#ffe8bc" opacity="0.37"/><circle cx="510" cy="629" r="1.5" fill="#ffe8bc" opacity="0.51"/><circle cx="591" cy="588" r="2" fill="#ffe8bc" opacity="0.76"/><circle cx="495" cy="631" r="2" fill="#ffe8bc" opacity="0.54"/><circle cx="923" cy="57" r="2.5" fill="#ffe8bc" opacity="0.56"/><circle cx="667" cy="319" r="1" fill="#ffe8bc" opacity="0.69"/><circle cx="749" cy="197" r="2.5" fill="#ffe8bc" opacity="0.51"/><circle cx="918" cy="543" r="2.5" fill="#ffe8bc" opacity="0.51"/><circle cx="886" cy="177" r="2.5" fill="#ffe8bc" opacity="0.42"/><circle cx="47" cy="105" r="2" fill="#ffe8bc" opacity="0.70"/><circle cx="795" cy="513" r="2" fill="#ffe8bc" opacity="0.70"/><circle cx="486" cy="546" r="2" fill="#ffe8bc" opacity="0.58"/><circle cx="583" cy="86" r="2" fill="#ffe8bc" opacity="0.67"/><circle cx="423" cy="474" r="1" fill="#ffe8bc" opacity="0.74"/><circle cx="302" cy="149" r="1" fill="#ffe8bc" opacity="0.45"/><circle cx="110" cy="405" r="2.5" fill="#ffe8bc" opacity="0.44"/><circle cx="565" cy="398" r="2.5" fill="#ffe8bc" opacity="0.45"/><circle cx="665" cy="205" r="1" fill="#ffe8bc" opacity="0.44"/><circle cx="97" cy="631" r="1" fill="#ffe8bc" opacity="0.64"/><circle cx="245" cy="51" r="1" fill="#ffe8bc" opacity="0.66"/><circle cx="163" cy="336" r="2" fill="#ffe8bc" opacity="0.79"/><circle cx="560" cy="155" r="1.5" fill="#ffe8bc" opacity="0.75"/><circle cx="490" cy="123" r="1.5" fill="#ffe8bc" opacity="0.43"/><circle cx="38" cy="375" r="2.5" fill="#ffe8bc" opacity="0.41"/><circle cx="243" cy="385" r="1.5" fill="#ffe8bc" opacity="0.52"/><circle cx="423" cy="304" r="2.5" fill="#ffe8bc" opacity="0.81"/><circle cx="271" cy="186" r="1" fill="#ffe8bc" opacity="0.77"/><circle cx="109" cy="467" r="1.5" fill="#ffe8bc" opacity="0.57"/><circle cx="244" cy="496" r="1" fill="#ffe8bc" opacity="0.47"/><circle cx="692" cy="511" r="1.5" fill="#ffe8bc" opacity="0.37"/><circle cx="829" cy="451" r="1.5" fill="#ffe8bc" opacity="0.78"/><circle cx="77" cy="154" r="1.5" fill="#ffe8bc" opacity="0.49"/><circle cx="677" cy="292" r="1" fill="#ffe8bc" opacity="0.79"/><circle cx="332" cy="334" r="1.5" fill="#ffe8bc" opacity="0.65"/><circle cx="189" cy="420" r="2.5" fill="#ffe8bc" opacity="0.60"/><circle cx="781" cy="268" r="2" fill="#ffe8bc" opacity="0.42"/><circle cx="869" cy="179" r="1" fill="#ffe8bc" opacity="0.61"/><circle cx="210" cy="275" r="2.5" fill="#ffe8bc" opacity="0.70"/><circle cx="650" cy="234" r="155" fill="url(#moon)"/><circle cx="675" cy="201" r="111.6" fill="none" stroke="#fff6d8" opacity=".16" stroke-width="2"/><g fill="#ffe8bc" opacity=".9"><circle cx="506" cy="465" r="22"/><path d="M483 484q22 22 45 0l20 46-8 44 72 81q-53 5-97-31-37 36-116 39l71-92-7-47z"/><path d="M523 480q94 12 168-62-33 93-126 104z" opacity=".55"/><path d="M482 485q-64 7-104-30 39 59 94 72z" opacity=".55"/></g><path d="M93.75 555c27.0 -35.1 59.400000000000006 -33.75 74.25 -10.8c27.0 -58.050000000000004 101.25 -51.300000000000004 114.75000000000001 -2.7c32.400000000000006 -18.900000000000002 60.75000000000001 -8.100000000000001 78.30000000000001 13.5c-85.05000000000001 -1.35 -170.10000000000002 -1.35 -267.3 0Z" fill="#b8c9d4" opacity=".38"/><path d="M628.75 602c31.0 -40.300000000000004 68.2 -38.75 85.25 -12.4c31.0 -66.65 116.25 -58.9 131.75 -3.1c37.2 -21.7 69.75 -9.3 89.9 15.5c-97.65 -1.55 -195.3 -1.55 -306.90000000000003 0Z" fill="#ffe8bc" opacity=".38"/><path d="M334.5 768c42.0 -54.6 92.4 -52.5 115.5 -16.8c42.0 -90.3 157.5 -79.8 178.5 -4.2c50.400000000000006 -29.400000000000002 94.5 -12.600000000000001 121.80000000000001 21.0c-132.3 -2.1 -264.6 -2.1 -415.8 0Z" fill="#b8c9d4" opacity=".38"/><path d="M0 875Q250 823 500 879T1000 852V1000H0Z" fill="#6079a5" opacity=".5"/><text x="500" y="912" text-anchor="middle" font-family="Noto Serif CJK SC,Source Han Serif SC,serif" font-size="42" letter-spacing="9" fill="#ffe8bc">嫦娥·星愿</text><text x="500" y="952" text-anchor="middle" font-family="serif" font-size="15" letter-spacing="6" fill="#b8c9d4">MID-AUTUMN · 030</text></svg>