<svg xmlns="http://www.w3.org/2000/svg" viewBox="0 0 1000 1000" width="1000" height="1000"><defs><linearGradient id="sky" x2=".8" y2="1"><stop stop-color="#231a41"/><stop offset="1" stop-color="#70578b"/></linearGradient><radialGradient id="moon"><stop stop-color="#fff8dc"/><stop offset=".68" stop-color="#f7d4aa"/><stop offset="1" stop-color="#e8a3bb"/></radialGradient><filter id="blur"><feGaussianBlur stdDeviation="24"/></filter></defs><rect width="1000" height="1000" fill="url(#sky)"/><circle cx="590" cy="306" r="190" fill="#f7d4aa" opacity=".07" filter="url(#blur)"/><circle cx="801" cy="197" r="2.5" fill="#f7d4aa" opacity="0.74"/><circle cx="866" cy="281" r="2.5" fill="#f7d4aa" opacity="0.69"/><circle cx="814" cy="187" r="2.5" fill="#f7d4aa" opacity="0.58"/><circle cx="403" cy="266" r="2.5" fill="#f7d4aa" opacity="0.38"/><circle cx="425" cy="519" r="2" fill="#f7d4aa" opacity="0.40"/><circle cx="36" cy="280" r="1.5" fill="#f7d4aa" opacity="0.56"/><circle cx="780" cy="471" r="2.5" fill="#f7d4aa" opacity="0.39"/><circle cx="594" cy="635" r="2.5" fill="#f7d4aa" opacity="0.71"/><circle cx="707" cy="407" r="1" fill="#f7d4aa" opacity="0.72"/><circle cx="730" cy="489" r="2.5" fill="#f7d4aa" opacity="0.43"/><circle cx="545" cy="443" r="1" fill="#f7d4aa" opacity="0.65"/><circle cx="714" cy="35" r="2.5" fill="#f7d4aa" opacity="0.44"/><circle cx="108" cy="232" r="1.5" fill="#f7d4aa" opacity="0.51"/><circle cx="726" cy="305" r="2.5" fill="#f7d4aa" opacity="0.41"/><circle cx="108" cy="166" r="1.5" fill="#f7d4aa" opacity="0.58"/><circle cx="867" cy="608" r="2" fill="#f7d4aa" opacity="0.83"/><circle cx="455" cy="209" r="1.5" fill="#f7d4aa" opacity="0.49"/><circle cx="360" cy="581" r="2.5" fill="#f7d4aa" opacity="0.48"/><circle cx="246" cy="631" r="1.5" fill="#f7d4aa" opacity="0.54"/><circle cx="276" cy="263" r="1.5" fill="#f7d4aa" opacity="0.81"/><circle cx="226" cy="588" r="1" fill="#f7d4aa" opacity="0.71"/><circle cx="319" cy="373" r="1.5" fill="#f7d4aa" opacity="0.83"/><circle cx="147" cy="543" r="2.5" fill="#f7d4aa" opacity="0.35"/><circle cx="603" cy="275" r="1" fill="#f7d4aa" opacity="0.59"/><circle cx="734" cy="75" r="2" fill="#f7d4aa" opacity="0.51"/><circle cx="894" cy="313" r="1" fill="#f7d4aa" opacity="0.42"/><circle cx="327" cy="505" r="1" fill="#f7d4aa" opacity="0.40"/><circle cx="89" cy="400" r="1.5" fill="#f7d4aa" opacity="0.38"/><circle cx="729" cy="566" r="1.5" fill="#f7d4aa" opacity="0.77"/><circle cx="235" cy="76" r="2" fill="#f7d4aa" opacity="0.54"/><circle cx="690" cy="364" r="2" fill="#f7d4aa" opacity="0.78"/><circle cx="188" cy="294" r="2" fill="#f7d4aa" opacity="0.60"/><circle cx="103" cy="305" r="2.5" fill="#f7d4aa" opacity="0.63"/><circle cx="443" cy="149" r="1" fill="#f7d4aa" opacity="0.38"/><circle cx="326" cy="474" r="2.5" fill="#f7d4aa" opacity="0.43"/><circle cx="834" cy="577" r="1.5" fill="#f7d4aa" opacity="0.61"/><circle cx="739" cy="237" r="2" fill="#f7d4aa" opacity="0.82"/><circle cx="510" cy="414" r="2.5" fill="#f7d4aa" opacity="0.45"/><circle cx="779" cy="249" r="2" fill="#f7d4aa" opacity="0.70"/><circle cx="523" cy="190" r="1" fill="#f7d4aa" opacity="0.75"/><circle cx="594" cy="324" r="2" fill="#f7d4aa" opacity="0.62"/><circle cx="260" cy="480" r="2" fill="#f7d4aa" opacity="0.49"/><circle cx="590" cy="306" r="155" fill="url(#moon)"/><circle cx="615" cy="273" r="111.6" fill="none" stroke="#fff6d8" opacity=".16" stroke-width="2"/><g transform="translate(489 506) scale(1.14)" fill="#f7d4aa" opacity=".75"><ellipse cy="-9" rx="4" ry="10" transform="rotate(0)"/><ellipse cy="-9" rx="4" ry="10" transform="rotate(72)"/><ellipse cy="-9" rx="4" ry="10" transform="rotate(144)"/><ellipse cy="-9" rx="4" ry="10" transform="rotate(216)"/><ellipse cy="-9" rx="4" ry="10" transform="rotate(288)"/><circle r="3" fill="#fff0cc"/></g><g transform="translate(568 667) scale(0.75)" fill="#f7d4aa" opacity=".75"><ellipse cy="-9" rx="4" ry="10" transform="rotate(0)"/><ellipse cy="-9" rx="4" ry="10" transform="rotate(72)"/><ellipse cy="-9" rx="4" ry="10" transform="rotate(144)"/><ellipse cy="-9" rx="4" ry="10" transform="rotate(216)"/><ellipse cy="-9" rx="4" ry="10" transform="rotate(288)"/><circle r="3" fill="#fff0cc"/></g><g transform="translate(270 290) scale(1.13)" fill="#f7d4aa" opacity=".75"><ellipse cy="-9" rx="4" ry="10" transform="rotate(0)"/><ellipse cy="-9" rx="4" ry="10" transform="rotate(72)"/><ellipse cy="-9" rx="4" ry="10" transform="rotate(144)"/><ellipse cy="-9" rx="4" ry="10" transform="rotate(216)"/><ellipse cy="-9" rx="4" ry="10" transform="rotate(288)"/><circle r="3" fill="#fff0cc"/></g><g transform="translate(257 636) scale(1.16)" fill="#f7d4aa" opacity=".75"><ellipse cy="-9" rx="4" ry="10" transform="rotate(0)"/><ellipse cy="-9" rx="4" ry="10" transform="rotate(72)"/><ellipse cy="-9" rx="4" ry="10" transform="rotate(144)"/><ellipse cy="-9" rx="4" ry="10" transform="rotate(216)"/><ellipse cy="-9" rx="4" ry="10" transform="rotate(288)"/><circle r="3" fill="#fff0cc"/></g><g transform="translate(805 494) scale(1.09)" fill="#f7d4aa" opacity=".75"><ellipse cy="-9" rx="4" ry="10" transform="rotate(0)"/><ellipse cy="-9" rx="4" ry="10" transform="rotate(72)"/><ellipse cy="-9" rx="4" ry="10" transform="rotate(144)"/><ellipse cy="-9" rx="4" ry="10" transform="rotate(216)"/><ellipse cy="-9" rx="4" ry="10" transform="rotate(288)"/><circle r="3" fill="#fff0cc"/></g><g transform="translate(659 153) scale(1.01)" fill="#f7d4aa" opacity=".75"><ellipse cy="-9" rx="4" ry="10" transform="rotate(0)"/><ellipse cy="-9" rx="4" ry="10" transform="rotate(72)"/><ellipse cy="-9" rx="4" ry="10" transform="rotate(144)"/><ellipse cy="-9" rx="4" ry="10" transform="rotate(216)"/><ellipse cy="-9" rx="4" ry="10" transform="rotate(288)"/><circle r="3" fill="#fff0cc"/></g><g transform="translate(641 398) scale(0.85)" fill="#f7d4aa" opacity=".75"><ellipse cy="-9" rx="4" ry="10" transform="rotate(0)"/><ellipse cy="-9" rx="4" ry="10" transform="rotate(72)"/><ellipse cy="-9" rx="4" ry="10" transform="rotate(144)"/><ellipse cy="-9" rx="4" ry="10" transform="rotate(216)"/><ellipse cy="-9" rx="4" ry="10" transform="rotate(288)"/><circle r="3" fill="#fff0cc"/></g><g transform="translate(760 462) scale(1.01)" fill="#f7d4aa" opacity=".75"><ellipse cy="-9" rx="4" ry="10" transform="rotate(0)"/><ellipse cy="-9" rx="4" ry="10" transform="rotate(72)"/><ellipse cy="-9" rx="4" ry="10" transform="rotate(144)"/><ellipse cy="-9" rx="4" ry="10" transform="rotate(216)"/><ellipse cy="-9" rx="4" ry="10" transform="rotate(288)"/><circle r="3" fill="#fff0cc"/></g><g transform="translate(860 696) scale(0.55)" fill="#f7d4aa" opacity=".75"><ellipse cy="-9" rx="4" ry="10" transform="rotate(0)"/><ellipse cy="-9" rx="4" ry="10" transform="rotate(72)"/><ellipse cy="-9" rx="4" ry="10" transform="rotate(144)"/><ellipse cy="-9" rx="4" ry="10" transform="rotate(216)"/><ellipse cy="-9" rx="4" ry="10" transform="rotate(288)"/><circle r="3" fill="#fff0cc"/></g><g transform="translate(741 601) scale(0.86)" fill="#f7d4aa" opacity=".75"><ellipse cy="-9" rx="4" ry="10" transform="rotate(0)"/><ellipse cy="-9" rx="4" ry="10" transform="rotate(72)"/><ellipse cy="-9" rx="4" ry="10" transform="rotate(144)"/><ellipse cy="-9" rx="4" ry="10" transform="rotate(216)"/><ellipse cy="-9" rx="4" ry="10" transform="rotate(288)"/><circle r="3" fill="#fff0cc"/></g><g transform="translate(59 262) scale(0.76)" fill="#f7d4aa" opacity=".75"><ellipse cy="-9" rx="4" ry="10" transform="rotate(0)"/><ellipse cy="-9" rx="4" ry="10" transform="rotate(72)"/><ellipse cy="-9" rx="4" ry="10" transform="rotate(144)"/><ellipse cy="-9" rx="4" ry="10" transform="rotate(216)"/><ellipse cy="-9" rx="4" ry="10" transform="rotate(288)"/><circle r="3" fill="#fff0cc"/></g><g transform="translate(87 710) scale(0.56)" fill="#f7d4aa" opacity=".75"><ellipse cy="-9" rx="4" ry="10" transform="rotate(0)"/><ellipse cy="-9" rx="4" ry="10" transform="rotate(72)"/><ellipse cy="-9" rx="4" ry="10" transform="rotate(144)"/><ellipse cy="-9" rx="4" ry="10" transform="rotate(216)"/><ellipse cy="-9" rx="4" ry="10" transform="rotate(288)"/><circle r="3" fill="#fff0cc"/></g><g transform="translate(769 712) scale(1.18)" fill="#f7d4aa" opacity=".75"><ellipse cy="-9" rx="4" ry="10" transform="rotate(0)"/><ellipse cy="-9" rx="4" ry="10" transform="rotate(72)"/><ellipse cy="-9" rx="4" ry="10" transform="rotate(144)"/><ellipse cy="-9" rx="4" ry="10" transform="rotate(216)"/><ellipse cy="-9" rx="4" ry="10" transform="rotate(288)"/><circle r="3" fill="#fff0cc"/></g><path d="M93.75 555c27.0 -35.1 59.400000000000006 -33.75 74.25 -10.8c27.0 -58.050000000000004 101.25 -51.300000000000004 114.75000000000001 -2.7c32.400000000000006 -18.900000000000002 60.75000000000001 -8.100000000000001 78.30000000000001 13.5c-85.05000000000001 -1.35 -170.10000000000002 -1.35 -267.3 0Z" fill="#e8a3bb" opacity=".38"/><path d="M628.75 602c31.0 -40.300000000000004 68.2 -38.75 85.25 -12.4c31.0 -66.65 116.25 -58.9 131.75 -3.1c37.2 -21.7 69.75 -9.3 89.9 15.5c-97.65 -1.55 -195.3 -1.55 -306.90000000000003 0Z" fill="#f7d4aa" opacity=".38"/><path d="M334.5 768c42.0 -54.6 92.4 -52.5 115.5 -16.8c42.0 -90.3 157.5 -79.8 178.5 -4.2c50.400000000000006 -29.400000000000002 94.5 -12.600000000000001 121.80000000000001 21.0c-132.3 -2.1 -264.6 -2.1 -415.8 0Z" fill="#e8a3bb" opacity=".38"/><path d="M0 875Q250 823 500 879T1000 852V1000H0Z" fill="#70578b" opacity=".5"/><text x="500" y="912" text-anchor="middle" font-family="Noto Serif CJK SC,Source Han Serif SC,serif" font-size="42" letter-spacing="9" fill="#f7d4aa">桂花·花影</text><text x="500" y="952" text-anchor="middle" font-family="serif" font-size="15" letter-spacing="6" fill="#e8a3bb">MID-AUTUMN · 034</text></svg>