<svg xmlns="http://www.w3.org/2000/svg" viewBox="0 0 1000 1000" width="1000" height="1000"><defs><linearGradient id="sky" x2=".8" y2="1"><stop stop-color="#192e35"/><stop offset="1" stop-color="#557a77"/></linearGradient><radialGradient id="moon"><stop stop-color="#fff8dc"/><stop offset=".68" stop-color="#ffe1a6"/><stop offset="1" stop-color="#daa680"/></radialGradient><filter id="blur"><feGaussianBlur stdDeviation="24"/></filter></defs><rect width="1000" height="1000" fill="url(#sky)"/><circle cx="410" cy="234" r="208" fill="#ffe1a6" opacity=".07" filter="url(#blur)"/><circle cx="737" cy="70" r="1.5" fill="#ffe1a6" opacity="0.44"/><circle cx="860" cy="353" r="1.5" fill="#ffe1a6" opacity="0.41"/><circle cx="58" cy="390" r="2.5" fill="#ffe1a6" opacity="0.81"/><circle cx="718" cy="359" r="1.5" fill="#ffe1a6" opacity="0.53"/><circle cx="594" cy="590" r="2.5" fill="#ffe1a6" opacity="0.81"/><circle cx="890" cy="274" r="1" fill="#ffe1a6" opacity="0.40"/><circle cx="878" cy="612" r="1.5" fill="#ffe1a6" opacity="0.46"/><circle cx="244" cy="199" r="1.5" fill="#ffe1a6" opacity="0.82"/><circle cx="549" cy="333" r="1.5" fill="#ffe1a6" opacity="0.44"/><circle cx="121" cy="433" r="2.5" fill="#ffe1a6" opacity="0.70"/><circle cx="94" cy="39" r="1.5" fill="#ffe1a6" opacity="0.74"/><circle cx="35" cy="566" r="2" fill="#ffe1a6" opacity="0.79"/><circle cx="579" cy="556" r="1" fill="#ffe1a6" opacity="0.80"/><circle cx="811" cy="583" r="1" fill="#ffe1a6" opacity="0.47"/><circle cx="333" cy="262" r="2.5" fill="#ffe1a6" opacity="0.58"/><circle cx="703" cy="350" r="1.5" fill="#ffe1a6" opacity="0.49"/><circle cx="255" cy="103" r="2" fill="#ffe1a6" opacity="0.69"/><circle cx="525" cy="179" r="2.5" fill="#ffe1a6" opacity="0.83"/><circle cx="205" cy="326" r="2.5" fill="#ffe1a6" opacity="0.49"/><circle cx="280" cy="152" r="1" fill="#ffe1a6" opacity="0.69"/><circle cx="135" cy="295" r="1" fill="#ffe1a6" opacity="0.82"/><circle cx="221" cy="129" r="1" fill="#ffe1a6" opacity="0.61"/><circle cx="544" cy="430" r="1" fill="#ffe1a6" opacity="0.76"/><circle cx="65" cy="124" r="2" fill="#ffe1a6" opacity="0.42"/><circle cx="719" cy="394" r="1" fill="#ffe1a6" opacity="0.39"/><circle cx="530" cy="628" r="1.5" fill="#ffe1a6" opacity="0.35"/><circle cx="57" cy="212" r="2.5" fill="#ffe1a6" opacity="0.62"/><circle cx="646" cy="497" r="1.5" fill="#ffe1a6" opacity="0.49"/><circle cx="881" cy="236" r="2" fill="#ffe1a6" opacity="0.47"/><circle cx="387" cy="84" r="1" fill="#ffe1a6" opacity="0.55"/><circle cx="258" cy="318" r="1.5" fill="#ffe1a6" opacity="0.77"/><circle cx="747" cy="551" r="1.5" fill="#ffe1a6" opacity="0.53"/><circle cx="258" cy="378" r="2" fill="#ffe1a6" opacity="0.42"/><circle cx="562" cy="449" r="2" fill="#ffe1a6" opacity="0.51"/><circle cx="773" cy="140" r="2" fill="#ffe1a6" opacity="0.81"/><circle cx="340" cy="394" r="1" fill="#ffe1a6" opacity="0.51"/><circle cx="603" cy="156" r="2.5" fill="#ffe1a6" opacity="0.48"/><circle cx="586" cy="330" r="2" fill="#ffe1a6" opacity="0.69"/><circle cx="425" cy="581" r="1" fill="#ffe1a6" opacity="0.80"/><circle cx="116" cy="638" r="1" fill="#ffe1a6" opacity="0.37"/><circle cx="678" cy="616" r="2.5" fill="#ffe1a6" opacity="0.45"/><circle cx="235" cy="423" r="2.5" fill="#ffe1a6" opacity="0.57"/><circle cx="410" cy="234" r="173" fill="url(#moon)"/><circle cx="435" cy="201" r="124.56" fill="none" stroke="#fff6d8" opacity=".16" stroke-width="2"/><g transform="translate(678 445) scale(0.51)" fill="#ffe1a6" opacity=".75"><ellipse cy="-9" rx="4" ry="10" transform="rotate(0)"/><ellipse cy="-9" rx="4" ry="10" transform="rotate(72)"/><ellipse cy="-9" rx="4" ry="10" transform="rotate(144)"/><ellipse cy="-9" rx="4" ry="10" transform="rotate(216)"/><ellipse cy="-9" rx="4" ry="10" transform="rotate(288)"/><circle r="3" fill="#fff0cc"/></g><g transform="translate(821 276) scale(0.83)" fill="#ffe1a6" opacity=".75"><ellipse cy="-9" rx="4" ry="10" transform="rotate(0)"/><ellipse cy="-9" rx="4" ry="10" transform="rotate(72)"/><ellipse cy="-9" rx="4" ry="10" transform="rotate(144)"/><ellipse cy="-9" rx="4" ry="10" transform="rotate(216)"/><ellipse cy="-9" rx="4" ry="10" transform="rotate(288)"/><circle r="3" fill="#fff0cc"/></g><g transform="translate(841 775) scale(0.81)" fill="#ffe1a6" opacity=".75"><ellipse cy="-9" rx="4" ry="10" transform="rotate(0)"/><ellipse cy="-9" rx="4" ry="10" transform="rotate(72)"/><ellipse cy="-9" rx="4" ry="10" transform="rotate(144)"/><ellipse cy="-9" rx="4" ry="10" transform="rotate(216)"/><ellipse cy="-9" rx="4" ry="10" transform="rotate(288)"/><circle r="3" fill="#fff0cc"/></g><g transform="translate(776 499) scale(1.13)" fill="#ffe1a6" opacity=".75"><ellipse cy="-9" rx="4" ry="10" transform="rotate(0)"/><ellipse cy="-9" rx="4" ry="10" transform="rotate(72)"/><ellipse cy="-9" rx="4" ry="10" transform="rotate(144)"/><ellipse cy="-9" rx="4" ry="10" transform="rotate(216)"/><ellipse cy="-9" rx="4" ry="10" transform="rotate(288)"/><circle r="3" fill="#fff0cc"/></g><g transform="translate(856 324) scale(0.89)" fill="#ffe1a6" opacity=".75"><ellipse cy="-9" rx="4" ry="10" transform="rotate(0)"/><ellipse cy="-9" rx="4" ry="10" transform="rotate(72)"/><ellipse cy="-9" rx="4" ry="10" transform="rotate(144)"/><ellipse cy="-9" rx="4" ry="10" transform="rotate(216)"/><ellipse cy="-9" rx="4" ry="10" transform="rotate(288)"/><circle r="3" fill="#fff0cc"/></g><g transform="translate(736 554) scale(1.19)" fill="#ffe1a6" opacity=".75"><ellipse cy="-9" rx="4" ry="10" transform="rotate(0)"/><ellipse cy="-9" rx="4" ry="10" transform="rotate(72)"/><ellipse cy="-9" rx="4" ry="10" transform="rotate(144)"/><ellipse cy="-9" rx="4" ry="10" transform="rotate(216)"/><ellipse cy="-9" rx="4" ry="10" transform="rotate(288)"/><circle r="3" fill="#fff0cc"/></g><g transform="translate(477 769) scale(0.66)" fill="#ffe1a6" opacity=".75"><ellipse cy="-9" rx="4" ry="10" transform="rotate(0)"/><ellipse cy="-9" rx="4" ry="10" transform="rotate(72)"/><ellipse cy="-9" rx="4" ry="10" transform="rotate(144)"/><ellipse cy="-9" rx="4" ry="10" transform="rotate(216)"/><ellipse cy="-9" rx="4" ry="10" transform="rotate(288)"/><circle r="3" fill="#fff0cc"/></g><g transform="translate(599 773) scale(0.56)" fill="#ffe1a6" opacity=".75"><ellipse cy="-9" rx="4" ry="10" transform="rotate(0)"/><ellipse cy="-9" rx="4" ry="10" transform="rotate(72)"/><ellipse cy="-9" rx="4" ry="10" transform="rotate(144)"/><ellipse cy="-9" rx="4" ry="10" transform="rotate(216)"/><ellipse cy="-9" rx="4" ry="10" transform="rotate(288)"/><circle r="3" fill="#fff0cc"/></g><g transform="translate(137 288) scale(0.54)" fill="#ffe1a6" opacity=".75"><ellipse cy="-9" rx="4" ry="10" transform="rotate(0)"/><ellipse cy="-9" rx="4" ry="10" transform="rotate(72)"/><ellipse cy="-9" rx="4" ry="10" transform="rotate(144)"/><ellipse cy="-9" rx="4" ry="10" transform="rotate(216)"/><ellipse cy="-9" rx="4" ry="10" transform="rotate(288)"/><circle r="3" fill="#fff0cc"/></g><g transform="translate(529 741) scale(0.98)" fill="#ffe1a6" opacity=".75"><ellipse cy="-9" rx="4" ry="10" transform="rotate(0)"/><ellipse cy="-9" rx="4" ry="10" transform="rotate(72)"/><ellipse cy="-9" rx="4" ry="10" transform="rotate(144)"/><ellipse cy="-9" rx="4" ry="10" transform="rotate(216)"/><ellipse cy="-9" rx="4" ry="10" transform="rotate(288)"/><circle r="3" fill="#fff0cc"/></g><g transform="translate(330 746) scale(0.57)" fill="#ffe1a6" opacity=".75"><ellipse cy="-9" rx="4" ry="10" transform="rotate(0)"/><ellipse cy="-9" rx="4" ry="10" transform="rotate(72)"/><ellipse cy="-9" rx="4" ry="10" transform="rotate(144)"/><ellipse cy="-9" rx="4" ry="10" transform="rotate(216)"/><ellipse cy="-9" rx="4" ry="10" transform="rotate(288)"/><circle r="3" fill="#fff0cc"/></g><g transform="translate(267 697) scale(0.78)" fill="#ffe1a6" opacity=".75"><ellipse cy="-9" rx="4" ry="10" transform="rotate(0)"/><ellipse cy="-9" rx="4" ry="10" transform="rotate(72)"/><ellipse cy="-9" rx="4" ry="10" transform="rotate(144)"/><ellipse cy="-9" rx="4" ry="10" transform="rotate(216)"/><ellipse cy="-9" rx="4" ry="10" transform="rotate(288)"/><circle r="3" fill="#fff0cc"/></g><g transform="translate(352 362) scale(0.77)" fill="#ffe1a6" opacity=".75"><ellipse cy="-9" rx="4" ry="10" transform="rotate(0)"/><ellipse cy="-9" rx="4" ry="10" transform="rotate(72)"/><ellipse cy="-9" rx="4" ry="10" transform="rotate(144)"/><ellipse cy="-9" rx="4" ry="10" transform="rotate(216)"/><ellipse cy="-9" rx="4" ry="10" transform="rotate(288)"/><circle r="3" fill="#fff0cc"/></g><path d="M93.75 555c27.0 -35.1 59.400000000000006 -33.75 74.25 -10.8c27.0 -58.050000000000004 101.25 -51.300000000000004 114.75000000000001 -2.7c32.400000000000006 -18.900000000000002 60.75000000000001 -8.100000000000001 78.30000000000001 13.5c-85.05000000000001 -1.35 -170.10000000000002 -1.35 -267.3 0Z" fill="#daa680" opacity=".38"/><path d="M628.75 602c31.0 -40.300000000000004 68.2 -38.75 85.25 -12.4c31.0 -66.65 116.25 -58.9 131.75 -3.1c37.2 -21.7 69.75 -9.3 89.9 15.5c-97.65 -1.55 -195.3 -1.55 -306.90000000000003 0Z" fill="#ffe1a6" opacity=".38"/><path d="M334.5 768c42.0 -54.6 92.4 -52.5 115.5 -16.8c42.0 -90.3 157.5 -79.8 178.5 -4.2c50.400000000000006 -29.400000000000002 94.5 -12.600000000000001 121.80000000000001 21.0c-132.3 -2.1 -264.6 -2.1 -415.8 0Z" fill="#daa680" opacity=".38"/><path d="M0 875Q250 823 500 879T1000 852V1000H0Z" fill="#557a77" opacity=".5"/><path d="M114 783Q501 675 890 778" fill="none" stroke="#ffe1a6" stroke-width="7" opacity=".6"/><text x="500" y="912" text-anchor="middle" font-family="Noto Serif CJK SC,Source Han Serif SC,serif" font-size="42" letter-spacing="9" fill="#ffe1a6">鹊桥·相思</text><text x="500" y="952" text-anchor="middle" font-family="serif" font-size="15" letter-spacing="6" fill="#daa680">MID-AUTUMN · 042</text></svg>