<svg xmlns="http://www.w3.org/2000/svg" viewBox="0 0 1000 1000" width="1000" height="1000"><defs><linearGradient id="sky" x2=".8" y2="1"><stop stop-color="#1f3047"/><stop offset="1" stop-color="#677b8a"/></linearGradient><radialGradient id="moon"><stop stop-color="#fff8dc"/><stop offset=".68" stop-color="#f8dcad"/><stop offset="1" stop-color="#ecc196"/></radialGradient><filter id="blur"><feGaussianBlur stdDeviation="24"/></filter></defs><rect width="1000" height="1000" fill="url(#sky)"/><circle cx="500" cy="411" r="208" fill="#f8dcad" opacity=".07" filter="url(#blur)"/><circle cx="414" cy="321" r="2" fill="#f8dcad" opacity="0.53"/><circle cx="551" cy="213" r="1.5" fill="#f8dcad" opacity="0.65"/><circle cx="602" cy="52" r="2" fill="#f8dcad" opacity="0.45"/><circle cx="767" cy="442" r="2" fill="#f8dcad" opacity="0.57"/><circle cx="580" cy="275" r="2" fill="#f8dcad" opacity="0.58"/><circle cx="828" cy="214" r="1.5" fill="#f8dcad" opacity="0.45"/><circle cx="448" cy="103" r="1" fill="#f8dcad" opacity="0.54"/><circle cx="684" cy="102" r="1" fill="#f8dcad" opacity="0.40"/><circle cx="513" cy="86" r="1.5" fill="#f8dcad" opacity="0.70"/><circle cx="472" cy="218" r="1" fill="#f8dcad" opacity="0.42"/><circle cx="815" cy="541" r="2.5" fill="#f8dcad" opacity="0.77"/><circle cx="814" cy="171" r="1" fill="#f8dcad" opacity="0.82"/><circle cx="462" cy="500" r="2" fill="#f8dcad" opacity="0.41"/><circle cx="756" cy="521" r="1.5" fill="#f8dcad" opacity="0.68"/><circle cx="132" cy="431" r="1" fill="#f8dcad" opacity="0.62"/><circle cx="225" cy="306" r="2" fill="#f8dcad" opacity="0.72"/><circle cx="487" cy="85" r="2" fill="#f8dcad" opacity="0.55"/><circle cx="351" cy="84" r="2.5" fill="#f8dcad" opacity="0.46"/><circle cx="520" cy="99" r="2" fill="#f8dcad" opacity="0.85"/><circle cx="708" cy="618" r="1" fill="#f8dcad" opacity="0.65"/><circle cx="276" cy="606" r="2" fill="#f8dcad" opacity="0.73"/><circle cx="84" cy="281" r="1.5" fill="#f8dcad" opacity="0.55"/><circle cx="389" cy="155" r="2" fill="#f8dcad" opacity="0.78"/><circle cx="123" cy="537" r="1" fill="#f8dcad" opacity="0.76"/><circle cx="817" cy="39" r="2" fill="#f8dcad" opacity="0.48"/><circle cx="117" cy="473" r="2" fill="#f8dcad" opacity="0.44"/><circle cx="860" cy="192" r="1.5" fill="#f8dcad" opacity="0.77"/><circle cx="149" cy="148" r="2.5" fill="#f8dcad" opacity="0.75"/><circle cx="548" cy="104" r="2.5" fill="#f8dcad" opacity="0.53"/><circle cx="716" cy="443" r="1.5" fill="#f8dcad" opacity="0.80"/><circle cx="366" cy="494" r="1" fill="#f8dcad" opacity="0.76"/><circle cx="343" cy="218" r="1.5" fill="#f8dcad" opacity="0.54"/><circle cx="396" cy="168" r="2.5" fill="#f8dcad" opacity="0.44"/><circle cx="34" cy="620" r="2.5" fill="#f8dcad" opacity="0.58"/><circle cx="573" cy="346" r="2" fill="#f8dcad" opacity="0.44"/><circle cx="127" cy="326" r="1.5" fill="#f8dcad" opacity="0.77"/><circle cx="144" cy="634" r="1" fill="#f8dcad" opacity="0.37"/><circle cx="376" cy="524" r="1" fill="#f8dcad" opacity="0.63"/><circle cx="35" cy="42" r="1.5" fill="#f8dcad" opacity="0.51"/><circle cx="49" cy="344" r="1" fill="#f8dcad" opacity="0.62"/><circle cx="67" cy="581" r="2" fill="#f8dcad" opacity="0.61"/><circle cx="541" cy="508" r="2" fill="#f8dcad" opacity="0.61"/><circle cx="500" cy="411" r="173" fill="url(#moon)"/><circle cx="525" cy="378" r="124.56" fill="none" stroke="#fff6d8" opacity=".16" stroke-width="2"/><g transform="translate(155 623) scale(0.65)" fill="#f8dcad" opacity=".75"><ellipse cy="-9" rx="4" ry="10" transform="rotate(0)"/><ellipse cy="-9" rx="4" ry="10" transform="rotate(72)"/><ellipse cy="-9" rx="4" ry="10" transform="rotate(144)"/><ellipse cy="-9" rx="4" ry="10" transform="rotate(216)"/><ellipse cy="-9" rx="4" ry="10" transform="rotate(288)"/><circle r="3" fill="#fff0cc"/></g><g transform="translate(305 735) scale(0.77)" fill="#f8dcad" opacity=".75"><ellipse cy="-9" rx="4" ry="10" transform="rotate(0)"/><ellipse cy="-9" rx="4" ry="10" transform="rotate(72)"/><ellipse cy="-9" rx="4" ry="10" transform="rotate(144)"/><ellipse cy="-9" rx="4" ry="10" transform="rotate(216)"/><ellipse cy="-9" rx="4" ry="10" transform="rotate(288)"/><circle r="3" fill="#fff0cc"/></g><g transform="translate(383 470) scale(0.66)" fill="#f8dcad" opacity=".75"><ellipse cy="-9" rx="4" ry="10" transform="rotate(0)"/><ellipse cy="-9" rx="4" ry="10" transform="rotate(72)"/><ellipse cy="-9" rx="4" ry="10" transform="rotate(144)"/><ellipse cy="-9" rx="4" ry="10" transform="rotate(216)"/><ellipse cy="-9" rx="4" ry="10" transform="rotate(288)"/><circle r="3" fill="#fff0cc"/></g><g transform="translate(691 167) scale(1.07)" fill="#f8dcad" opacity=".75"><ellipse cy="-9" rx="4" ry="10" transform="rotate(0)"/><ellipse cy="-9" rx="4" ry="10" transform="rotate(72)"/><ellipse cy="-9" rx="4" ry="10" transform="rotate(144)"/><ellipse cy="-9" rx="4" ry="10" transform="rotate(216)"/><ellipse cy="-9" rx="4" ry="10" transform="rotate(288)"/><circle r="3" fill="#fff0cc"/></g><g transform="translate(147 426) scale(0.59)" fill="#f8dcad" opacity=".75"><ellipse cy="-9" rx="4" ry="10" transform="rotate(0)"/><ellipse cy="-9" rx="4" ry="10" transform="rotate(72)"/><ellipse cy="-9" rx="4" ry="10" transform="rotate(144)"/><ellipse cy="-9" rx="4" ry="10" transform="rotate(216)"/><ellipse cy="-9" rx="4" ry="10" transform="rotate(288)"/><circle r="3" fill="#fff0cc"/></g><g transform="translate(910 749) scale(0.64)" fill="#f8dcad" opacity=".75"><ellipse cy="-9" rx="4" ry="10" transform="rotate(0)"/><ellipse cy="-9" rx="4" ry="10" transform="rotate(72)"/><ellipse cy="-9" rx="4" ry="10" transform="rotate(144)"/><ellipse cy="-9" rx="4" ry="10" transform="rotate(216)"/><ellipse cy="-9" rx="4" ry="10" transform="rotate(288)"/><circle r="3" fill="#fff0cc"/></g><g transform="translate(713 538) scale(0.99)" fill="#f8dcad" opacity=".75"><ellipse cy="-9" rx="4" ry="10" transform="rotate(0)"/><ellipse cy="-9" rx="4" ry="10" transform="rotate(72)"/><ellipse cy="-9" rx="4" ry="10" transform="rotate(144)"/><ellipse cy="-9" rx="4" ry="10" transform="rotate(216)"/><ellipse cy="-9" rx="4" ry="10" transform="rotate(288)"/><circle r="3" fill="#fff0cc"/></g><g transform="translate(771 598) scale(0.52)" fill="#f8dcad" opacity=".75"><ellipse cy="-9" rx="4" ry="10" transform="rotate(0)"/><ellipse cy="-9" rx="4" ry="10" transform="rotate(72)"/><ellipse cy="-9" rx="4" ry="10" transform="rotate(144)"/><ellipse cy="-9" rx="4" ry="10" transform="rotate(216)"/><ellipse cy="-9" rx="4" ry="10" transform="rotate(288)"/><circle r="3" fill="#fff0cc"/></g><g transform="translate(557 222) scale(0.73)" fill="#f8dcad" opacity=".75"><ellipse cy="-9" rx="4" ry="10" transform="rotate(0)"/><ellipse cy="-9" rx="4" ry="10" transform="rotate(72)"/><ellipse cy="-9" rx="4" ry="10" transform="rotate(144)"/><ellipse cy="-9" rx="4" ry="10" transform="rotate(216)"/><ellipse cy="-9" rx="4" ry="10" transform="rotate(288)"/><circle r="3" fill="#fff0cc"/></g><g transform="translate(786 167) scale(1.00)" fill="#f8dcad" opacity=".75"><ellipse cy="-9" rx="4" ry="10" transform="rotate(0)"/><ellipse cy="-9" rx="4" ry="10" transform="rotate(72)"/><ellipse cy="-9" rx="4" ry="10" transform="rotate(144)"/><ellipse cy="-9" rx="4" ry="10" transform="rotate(216)"/><ellipse cy="-9" rx="4" ry="10" transform="rotate(288)"/><circle r="3" fill="#fff0cc"/></g><g transform="translate(882 530) scale(0.83)" fill="#f8dcad" opacity=".75"><ellipse cy="-9" rx="4" ry="10" transform="rotate(0)"/><ellipse cy="-9" rx="4" ry="10" transform="rotate(72)"/><ellipse cy="-9" rx="4" ry="10" transform="rotate(144)"/><ellipse cy="-9" rx="4" ry="10" transform="rotate(216)"/><ellipse cy="-9" rx="4" ry="10" transform="rotate(288)"/><circle r="3" fill="#fff0cc"/></g><g transform="translate(220 386) scale(0.96)" fill="#f8dcad" opacity=".75"><ellipse cy="-9" rx="4" ry="10" transform="rotate(0)"/><ellipse cy="-9" rx="4" ry="10" transform="rotate(72)"/><ellipse cy="-9" rx="4" ry="10" transform="rotate(144)"/><ellipse cy="-9" rx="4" ry="10" transform="rotate(216)"/><ellipse cy="-9" rx="4" ry="10" transform="rotate(288)"/><circle r="3" fill="#fff0cc"/></g><g transform="translate(353 149) scale(0.82)" fill="#f8dcad" opacity=".75"><ellipse cy="-9" rx="4" ry="10" transform="rotate(0)"/><ellipse cy="-9" rx="4" ry="10" transform="rotate(72)"/><ellipse cy="-9" rx="4" ry="10" transform="rotate(144)"/><ellipse cy="-9" rx="4" ry="10" transform="rotate(216)"/><ellipse cy="-9" rx="4" ry="10" transform="rotate(288)"/><circle r="3" fill="#fff0cc"/></g><path d="M93.75 555c27.0 -35.1 59.400000000000006 -33.75 74.25 -10.8c27.0 -58.050000000000004 101.25 -51.300000000000004 114.75000000000001 -2.7c32.400000000000006 -18.900000000000002 60.75000000000001 -8.100000000000001 78.30000000000001 13.5c-85.05000000000001 -1.35 -170.10000000000002 -1.35 -267.3 0Z" fill="#ecc196" opacity=".38"/><path d="M628.75 602c31.0 -40.300000000000004 68.2 -38.75 85.25 -12.4c31.0 -66.65 116.25 -58.9 131.75 -3.1c37.2 -21.7 69.75 -9.3 89.9 15.5c-97.65 -1.55 -195.3 -1.55 -306.90000000000003 0Z" fill="#f8dcad" opacity=".38"/><path d="M334.5 768c42.0 -54.6 92.4 -52.5 115.5 -16.8c42.0 -90.3 157.5 -79.8 178.5 -4.2c50.400000000000006 -29.400000000000002 94.5 -12.600000000000001 121.80000000000001 21.0c-132.3 -2.1 -264.6 -2.1 -415.8 0Z" fill="#ecc196" opacity=".38"/><path d="M0 875Q250 823 500 879T1000 852V1000H0Z" fill="#677b8a" opacity=".5"/><path d="M114 783Q501 675 890 778" fill="none" stroke="#f8dcad" stroke-width="7" opacity=".6"/><text x="500" y="912" text-anchor="middle" font-family="Noto Serif CJK SC,Source Han Serif SC,serif" font-size="42" letter-spacing="9" fill="#f8dcad">鹊桥·良辰</text><text x="500" y="952" text-anchor="middle" font-family="serif" font-size="15" letter-spacing="6" fill="#ecc196">MID-AUTUMN · 048</text></svg>