<svg xmlns="http://www.w3.org/2000/svg" viewBox="0 0 1000 1000" width="1000" height="1000"><defs><linearGradient id="sky" x2=".8" y2="1"><stop stop-color="#13253b"/><stop offset="1" stop-color="#356475"/></linearGradient><radialGradient id="moon"><stop stop-color="#fff8dc"/><stop offset=".68" stop-color="#f6dc9f"/><stop offset="1" stop-color="#efb9a1"/></radialGradient><filter id="blur"><feGaussianBlur stdDeviation="24"/></filter></defs><rect width="1000" height="1000" fill="url(#sky)"/><circle cx="590" cy="306" r="190" fill="#f6dc9f" opacity=".07" filter="url(#blur)"/><circle cx="902" cy="327" r="2.5" fill="#f6dc9f" opacity="0.55"/><circle cx="664" cy="91" r="2.5" fill="#f6dc9f" opacity="0.58"/><circle cx="384" cy="397" r="1.5" fill="#f6dc9f" opacity="0.42"/><circle cx="574" cy="595" r="2.5" fill="#f6dc9f" opacity="0.48"/><circle cx="693" cy="201" r="2" fill="#f6dc9f" opacity="0.81"/><circle cx="842" cy="569" r="1" fill="#f6dc9f" opacity="0.74"/><circle cx="43" cy="592" r="1.5" fill="#f6dc9f" opacity="0.81"/><circle cx="568" cy="170" r="2" fill="#f6dc9f" opacity="0.67"/><circle cx="428" cy="477" r="1" fill="#f6dc9f" opacity="0.71"/><circle cx="676" cy="58" r="2.5" fill="#f6dc9f" opacity="0.67"/><circle cx="709" cy="208" r="1.5" fill="#f6dc9f" opacity="0.64"/><circle cx="444" cy="518" r="2" fill="#f6dc9f" opacity="0.59"/><circle cx="231" cy="550" r="2.5" fill="#f6dc9f" opacity="0.80"/><circle cx="744" cy="155" r="1" fill="#f6dc9f" opacity="0.64"/><circle cx="183" cy="57" r="2" fill="#f6dc9f" opacity="0.59"/><circle cx="514" cy="26" r="2.5" fill="#f6dc9f" opacity="0.71"/><circle cx="101" cy="527" r="2" fill="#f6dc9f" opacity="0.43"/><circle cx="728" cy="486" r="1.5" fill="#f6dc9f" opacity="0.64"/><circle cx="343" cy="513" r="1" fill="#f6dc9f" opacity="0.56"/><circle cx="316" cy="449" r="1.5" fill="#f6dc9f" opacity="0.44"/><circle cx="399" cy="514" r="2" fill="#f6dc9f" opacity="0.67"/><circle cx="100" cy="491" r="1.5" fill="#f6dc9f" opacity="0.49"/><circle cx="807" cy="116" r="1.5" fill="#f6dc9f" opacity="0.59"/><circle cx="368" cy="472" r="1" fill="#f6dc9f" opacity="0.35"/><circle cx="262" cy="340" r="2" fill="#f6dc9f" opacity="0.51"/><circle cx="303" cy="226" r="2" fill="#f6dc9f" opacity="0.56"/><circle cx="274" cy="514" r="2.5" fill="#f6dc9f" opacity="0.45"/><circle cx="606" cy="366" r="1.5" fill="#f6dc9f" opacity="0.37"/><circle cx="732" cy="340" r="1" fill="#f6dc9f" opacity="0.74"/><circle cx="737" cy="599" r="1" fill="#f6dc9f" opacity="0.49"/><circle cx="712" cy="196" r="1.5" fill="#f6dc9f" opacity="0.68"/><circle cx="65" cy="47" r="2" fill="#f6dc9f" opacity="0.63"/><circle cx="755" cy="444" r="1.5" fill="#f6dc9f" opacity="0.49"/><circle cx="669" cy="372" r="1" fill="#f6dc9f" opacity="0.82"/><circle cx="236" cy="175" r="2.5" fill="#f6dc9f" opacity="0.43"/><circle cx="257" cy="375" r="1.5" fill="#f6dc9f" opacity="0.48"/><circle cx="867" cy="253" r="1.5" fill="#f6dc9f" opacity="0.72"/><circle cx="967" cy="431" r="1" fill="#f6dc9f" opacity="0.49"/><circle cx="823" cy="324" r="1" fill="#f6dc9f" opacity="0.66"/><circle cx="137" cy="39" r="1.5" fill="#f6dc9f" opacity="0.77"/><circle cx="364" cy="620" r="2" fill="#f6dc9f" opacity="0.79"/><circle cx="642" cy="505" r="1" fill="#f6dc9f" opacity="0.76"/><circle cx="590" cy="306" r="155" fill="url(#moon)"/><circle cx="615" cy="273" r="111.6" fill="none" stroke="#fff6d8" opacity=".16" stroke-width="2"/><g transform="translate(210 438) scale(0.95)" stroke="#efb9a1" stroke-width="3" fill="none"><path d="M0 -100V-50 M0 45V88"/><ellipse cy="0" rx="31" ry="48" fill="#efb9a1" opacity=".82"/><path d="M-25 -30Q0 -50 25 -30M-26 30Q0 50 26 30M0 -48V48M-16 -42Q-30 0 -16 42M16 -42Q30 0 16 42" stroke="#fff0cd" stroke-width="2"/><path d="M-8 85L-14 104M0 86v20M8 85l14 19"/></g><g transform="translate(790 415) scale(0.85)" stroke="#f6dc9f" stroke-width="3" fill="none"><path d="M0 -100V-50 M0 45V88"/><ellipse cy="0" rx="31" ry="48" fill="#f6dc9f" opacity=".82"/><path d="M-25 -30Q0 -50 25 -30M-26 30Q0 50 26 30M0 -48V48M-16 -42Q-30 0 -16 42M16 -42Q30 0 16 42" stroke="#fff0cd" stroke-width="2"/><path d="M-8 85L-14 104M0 86v20M8 85l14 19"/></g><path d="M93.75 555c27.0 -35.1 59.400000000000006 -33.75 74.25 -10.8c27.0 -58.050000000000004 101.25 -51.300000000000004 114.75000000000001 -2.7c32.400000000000006 -18.900000000000002 60.75000000000001 -8.100000000000001 78.30000000000001 13.5c-85.05000000000001 -1.35 -170.10000000000002 -1.35 -267.3 0Z" fill="#efb9a1" opacity=".38"/><path d="M628.75 602c31.0 -40.300000000000004 68.2 -38.75 85.25 -12.4c31.0 -66.65 116.25 -58.9 131.75 -3.1c37.2 -21.7 69.75 -9.3 89.9 15.5c-97.65 -1.55 -195.3 -1.55 -306.90000000000003 0Z" fill="#f6dc9f" opacity=".38"/><path d="M334.5 768c42.0 -54.6 92.4 -52.5 115.5 -16.8c42.0 -90.3 157.5 -79.8 178.5 -4.2c50.400000000000006 -29.400000000000002 94.5 -12.600000000000001 121.80000000000001 21.0c-132.3 -2.1 -264.6 -2.1 -415.8 0Z" fill="#efb9a1" opacity=".38"/><path d="M0 875Q250 823 500 879T1000 852V1000H0Z" fill="#356475" opacity=".5"/><path d="M114 783Q501 675 890 778" fill="none" stroke="#f6dc9f" stroke-width="7" opacity=".6"/><text x="500" y="912" text-anchor="middle" font-family="Noto Serif CJK SC,Source Han Serif SC,serif" font-size="42" letter-spacing="9" fill="#f6dc9f">团圆·花影</text><text x="500" y="952" text-anchor="middle" font-family="serif" font-size="15" letter-spacing="6" fill="#efb9a1">MID-AUTUMN · 064</text></svg>