<svg xmlns="http://www.w3.org/2000/svg" viewBox="0 0 1000 1000" width="1000" height="1000"><defs><linearGradient id="sky" x2=".8" y2="1"><stop stop-color="#13253b"/><stop offset="1" stop-color="#356475"/></linearGradient><radialGradient id="moon"><stop stop-color="#fff8dc"/><stop offset=".68" stop-color="#f6dc9f"/><stop offset="1" stop-color="#efb9a1"/></radialGradient><filter id="blur"><feGaussianBlur stdDeviation="24"/></filter></defs><rect width="1000" height="1000" fill="url(#sky)"/><circle cx="500" cy="411" r="208" fill="#f6dc9f" opacity=".07" filter="url(#blur)"/><circle cx="289" cy="438" r="2.5" fill="#f6dc9f" opacity="0.59"/><circle cx="752" cy="149" r="1" fill="#f6dc9f" opacity="0.46"/><circle cx="899" cy="50" r="2" fill="#f6dc9f" opacity="0.70"/><circle cx="277" cy="345" r="2.5" fill="#f6dc9f" opacity="0.54"/><circle cx="67" cy="630" r="2" fill="#f6dc9f" opacity="0.39"/><circle cx="904" cy="133" r="2" fill="#f6dc9f" opacity="0.47"/><circle cx="501" cy="563" r="1" fill="#f6dc9f" opacity="0.61"/><circle cx="719" cy="205" r="2" fill="#f6dc9f" opacity="0.81"/><circle cx="259" cy="276" r="2.5" fill="#f6dc9f" opacity="0.83"/><circle cx="488" cy="52" r="2.5" fill="#f6dc9f" opacity="0.41"/><circle cx="490" cy="413" r="1.5" fill="#f6dc9f" opacity="0.46"/><circle cx="106" cy="452" r="2" fill="#f6dc9f" opacity="0.75"/><circle cx="98" cy="347" r="1.5" fill="#f6dc9f" opacity="0.60"/><circle cx="171" cy="390" r="1" fill="#f6dc9f" opacity="0.53"/><circle cx="901" cy="257" r="2.5" fill="#f6dc9f" opacity="0.77"/><circle cx="745" cy="546" r="1.5" fill="#f6dc9f" opacity="0.77"/><circle cx="322" cy="252" r="1.5" fill="#f6dc9f" opacity="0.81"/><circle cx="353" cy="472" r="2" fill="#f6dc9f" opacity="0.52"/><circle cx="490" cy="89" r="1.5" fill="#f6dc9f" opacity="0.83"/><circle cx="672" cy="631" r="1" fill="#f6dc9f" opacity="0.84"/><circle cx="476" cy="303" r="1.5" fill="#f6dc9f" opacity="0.50"/><circle cx="955" cy="384" r="1" fill="#f6dc9f" opacity="0.81"/><circle cx="893" cy="233" r="1.5" fill="#f6dc9f" opacity="0.81"/><circle cx="820" cy="89" r="1" fill="#f6dc9f" opacity="0.42"/><circle cx="770" cy="265" r="2.5" fill="#f6dc9f" opacity="0.77"/><circle cx="532" cy="550" r="1.5" fill="#f6dc9f" opacity="0.51"/><circle cx="143" cy="598" r="2.5" fill="#f6dc9f" opacity="0.77"/><circle cx="781" cy="27" r="2.5" fill="#f6dc9f" opacity="0.46"/><circle cx="682" cy="191" r="1.5" fill="#f6dc9f" opacity="0.52"/><circle cx="862" cy="345" r="1" fill="#f6dc9f" opacity="0.57"/><circle cx="651" cy="513" r="1" fill="#f6dc9f" opacity="0.36"/><circle cx="846" cy="491" r="1.5" fill="#f6dc9f" opacity="0.67"/><circle cx="823" cy="544" r="1.5" fill="#f6dc9f" opacity="0.81"/><circle cx="621" cy="639" r="2" fill="#f6dc9f" opacity="0.73"/><circle cx="400" cy="170" r="1.5" fill="#f6dc9f" opacity="0.45"/><circle cx="796" cy="476" r="2.5" fill="#f6dc9f" opacity="0.60"/><circle cx="406" cy="502" r="2" fill="#f6dc9f" opacity="0.80"/><circle cx="889" cy="36" r="1" fill="#f6dc9f" opacity="0.44"/><circle cx="801" cy="364" r="2" fill="#f6dc9f" opacity="0.68"/><circle cx="818" cy="116" r="1" fill="#f6dc9f" opacity="0.48"/><circle cx="539" cy="407" r="1.5" fill="#f6dc9f" opacity="0.50"/><circle cx="841" cy="531" r="2.5" fill="#f6dc9f" opacity="0.57"/><circle cx="500" cy="411" r="173" fill="url(#moon)"/><circle cx="525" cy="378" r="124.56" fill="none" stroke="#fff6d8" opacity=".16" stroke-width="2"/><path d="M0 693Q120 545 237 663T490 644T764 650T1000 606V1000H0" fill="#356475" opacity=".84"/><path d="M0 820Q180 650 330 760T671 731T1000 738V1000H0" fill="#13253b" opacity=".78"/><path d="M93.75 555c27.0 -35.1 59.400000000000006 -33.75 74.25 -10.8c27.0 -58.050000000000004 101.25 -51.300000000000004 114.75000000000001 -2.7c32.400000000000006 -18.900000000000002 60.75000000000001 -8.100000000000001 78.30000000000001 13.5c-85.05000000000001 -1.35 -170.10000000000002 -1.35 -267.3 0Z" fill="#efb9a1" opacity=".38"/><path d="M628.75 602c31.0 -40.300000000000004 68.2 -38.75 85.25 -12.4c31.0 -66.65 116.25 -58.9 131.75 -3.1c37.2 -21.7 69.75 -9.3 89.9 15.5c-97.65 -1.55 -195.3 -1.55 -306.90000000000003 0Z" fill="#f6dc9f" opacity=".38"/><path d="M334.5 768c42.0 -54.6 92.4 -52.5 115.5 -16.8c42.0 -90.3 157.5 -79.8 178.5 -4.2c50.400000000000006 -29.400000000000002 94.5 -12.600000000000001 121.80000000000001 21.0c-132.3 -2.1 -264.6 -2.1 -415.8 0Z" fill="#efb9a1" opacity=".38"/><path d="M0 875Q250 823 500 879T1000 852V1000H0Z" fill="#356475" opacity=".5"/><text x="500" y="912" text-anchor="middle" font-family="Noto Serif CJK SC,Source Han Serif SC,serif" font-size="42" letter-spacing="9" fill="#f6dc9f">山海·良辰</text><text x="500" y="952" text-anchor="middle" font-family="serif" font-size="15" letter-spacing="6" fill="#efb9a1">MID-AUTUMN · 088</text></svg>