<svg xmlns="http://www.w3.org/2000/svg" viewBox="0 0 1000 1000" width="1000" height="1000"><defs><linearGradient id="sky" x2=".8" y2="1"><stop stop-color="#1f3047"/><stop offset="1" stop-color="#677b8a"/></linearGradient><radialGradient id="moon"><stop stop-color="#fff8dc"/><stop offset=".68" stop-color="#f8dcad"/><stop offset="1" stop-color="#ecc196"/></radialGradient><filter id="blur"><feGaussianBlur stdDeviation="24"/></filter></defs><rect width="1000" height="1000" fill="url(#sky)"/><circle cx="500" cy="306" r="228" fill="#f8dcad" opacity=".07" filter="url(#blur)"/><circle cx="413" cy="113" r="2" fill="#f8dcad" opacity="0.80"/><circle cx="403" cy="594" r="2.5" fill="#f8dcad" opacity="0.75"/><circle cx="957" cy="349" r="1" fill="#f8dcad" opacity="0.72"/><circle cx="691" cy="72" r="2" fill="#f8dcad" opacity="0.56"/><circle cx="866" cy="189" r="1.5" fill="#f8dcad" opacity="0.72"/><circle cx="827" cy="316" r="1.5" fill="#f8dcad" opacity="0.71"/><circle cx="489" cy="239" r="1.5" fill="#f8dcad" opacity="0.64"/><circle cx="176" cy="145" r="2.5" fill="#f8dcad" opacity="0.68"/><circle cx="286" cy="322" r="2" fill="#f8dcad" opacity="0.52"/><circle cx="684" cy="360" r="1" fill="#f8dcad" opacity="0.68"/><circle cx="38" cy="123" r="1.5" fill="#f8dcad" opacity="0.39"/><circle cx="719" cy="161" r="1.5" fill="#f8dcad" opacity="0.61"/><circle cx="600" cy="429" r="2.5" fill="#f8dcad" opacity="0.83"/><circle cx="150" cy="97" r="2" fill="#f8dcad" opacity="0.78"/><circle cx="565" cy="640" r="2" fill="#f8dcad" opacity="0.52"/><circle cx="510" cy="538" r="2.5" fill="#f8dcad" opacity="0.38"/><circle cx="825" cy="486" r="1" fill="#f8dcad" opacity="0.37"/><circle cx="428" cy="297" r="2" fill="#f8dcad" opacity="0.61"/><circle cx="372" cy="590" r="1" fill="#f8dcad" opacity="0.65"/><circle cx="947" cy="372" r="1.5" fill="#f8dcad" opacity="0.57"/><circle cx="894" cy="588" r="1" fill="#f8dcad" opacity="0.49"/><circle cx="385" cy="123" r="1" fill="#f8dcad" opacity="0.85"/><circle cx="805" cy="445" r="2.5" fill="#f8dcad" opacity="0.44"/><circle cx="626" cy="224" r="2" fill="#f8dcad" opacity="0.80"/><circle cx="696" cy="504" r="1.5" fill="#f8dcad" opacity="0.68"/><circle cx="711" cy="226" r="1.5" fill="#f8dcad" opacity="0.70"/><circle cx="548" cy="496" r="2" fill="#f8dcad" opacity="0.72"/><circle cx="936" cy="190" r="2.5" fill="#f8dcad" opacity="0.75"/><circle cx="365" cy="434" r="1.5" fill="#f8dcad" opacity="0.44"/><circle cx="618" cy="30" r="1.5" fill="#f8dcad" opacity="0.60"/><circle cx="325" cy="516" r="2" fill="#f8dcad" opacity="0.64"/><circle cx="756" cy="64" r="1" fill="#f8dcad" opacity="0.56"/><circle cx="890" cy="392" r="2.5" fill="#f8dcad" opacity="0.68"/><circle cx="163" cy="64" r="1" fill="#f8dcad" opacity="0.61"/><circle cx="720" cy="251" r="2" fill="#f8dcad" opacity="0.39"/><circle cx="727" cy="593" r="2.5" fill="#f8dcad" opacity="0.58"/><circle cx="445" cy="641" r="2" fill="#f8dcad" opacity="0.52"/><circle cx="172" cy="194" r="2" fill="#f8dcad" opacity="0.79"/><circle cx="383" cy="435" r="1.5" fill="#f8dcad" opacity="0.42"/><circle cx="351" cy="432" r="1.5" fill="#f8dcad" opacity="0.38"/><circle cx="390" cy="303" r="2.5" fill="#f8dcad" opacity="0.65"/><circle cx="255" cy="289" r="2.5" fill="#f8dcad" opacity="0.57"/><circle cx="500" cy="306" r="193" fill="url(#moon)"/><circle cx="525" cy="273" r="138.96" fill="none" stroke="#fff6d8" opacity=".16" stroke-width="2"/><path d="M40 702Q245 568 412 647T721 603T980 549" fill="none" stroke="#f8dcad" stroke-width="3" opacity=".42" stroke-dasharray="3 14"/><path d="M93.75 555c27.0 -35.1 59.400000000000006 -33.75 74.25 -10.8c27.0 -58.050000000000004 101.25 -51.300000000000004 114.75000000000001 -2.7c32.400000000000006 -18.900000000000002 60.75000000000001 -8.100000000000001 78.30000000000001 13.5c-85.05000000000001 -1.35 -170.10000000000002 -1.35 -267.3 0Z" fill="#ecc196" opacity=".38"/><path d="M628.75 602c31.0 -40.300000000000004 68.2 -38.75 85.25 -12.4c31.0 -66.65 116.25 -58.9 131.75 -3.1c37.2 -21.7 69.75 -9.3 89.9 15.5c-97.65 -1.55 -195.3 -1.55 -306.90000000000003 0Z" fill="#f8dcad" opacity=".38"/><path d="M334.5 768c42.0 -54.6 92.4 -52.5 115.5 -16.8c42.0 -90.3 157.5 -79.8 178.5 -4.2c50.400000000000006 -29.400000000000002 94.5 -12.600000000000001 121.80000000000001 21.0c-132.3 -2.1 -264.6 -2.1 -415.8 0Z" fill="#ecc196" opacity=".38"/><path d="M0 875Q250 823 500 879T1000 852V1000H0Z" fill="#677b8a" opacity=".5"/><text x="500" y="912" text-anchor="middle" font-family="Noto Serif CJK SC,Source Han Serif SC,serif" font-size="42" letter-spacing="9" fill="#f8dcad">星河·清辉</text><text x="500" y="952" text-anchor="middle" font-family="serif" font-size="15" letter-spacing="6" fill="#ecc196">MID-AUTUMN · 093</text></svg>