<svg xmlns="http://www.w3.org/2000/svg" viewBox="0 0 1000 1000" width="1000" height="1000"><defs><linearGradient id="sky" x2=".8" y2="1"><stop stop-color="#381e3b"/><stop offset="1" stop-color="#8d5d74"/></linearGradient><radialGradient id="moon"><stop stop-color="#fff8dc"/><stop offset=".68" stop-color="#f8d7ae"/><stop offset="1" stop-color="#ecc0a2"/></radialGradient><filter id="blur"><feGaussianBlur stdDeviation="24"/></filter></defs><rect width="1000" height="1000" fill="url(#sky)"/><circle cx="500" cy="411" r="208" fill="#f8d7ae" opacity=".07" filter="url(#blur)"/><circle cx="470" cy="371" r="2" fill="#f8d7ae" opacity="0.53"/><circle cx="292" cy="475" r="1" fill="#f8d7ae" opacity="0.47"/><circle cx="243" cy="622" r="2" fill="#f8d7ae" opacity="0.60"/><circle cx="777" cy="402" r="1" fill="#f8d7ae" opacity="0.39"/><circle cx="544" cy="617" r="2" fill="#f8d7ae" opacity="0.79"/><circle cx="493" cy="582" r="2" fill="#f8d7ae" opacity="0.83"/><circle cx="468" cy="92" r="2.5" fill="#f8d7ae" opacity="0.77"/><circle cx="702" cy="258" r="1.5" fill="#f8d7ae" opacity="0.81"/><circle cx="673" cy="593" r="2.5" fill="#f8d7ae" opacity="0.68"/><circle cx="966" cy="215" r="1.5" fill="#f8d7ae" opacity="0.53"/><circle cx="279" cy="410" r="1.5" fill="#f8d7ae" opacity="0.68"/><circle cx="765" cy="518" r="2" fill="#f8d7ae" opacity="0.76"/><circle cx="775" cy="153" r="2" fill="#f8d7ae" opacity="0.58"/><circle cx="146" cy="177" r="2.5" fill="#f8d7ae" opacity="0.41"/><circle cx="123" cy="555" r="2" fill="#f8d7ae" opacity="0.84"/><circle cx="934" cy="170" r="1" fill="#f8d7ae" opacity="0.75"/><circle cx="892" cy="476" r="2.5" fill="#f8d7ae" opacity="0.74"/><circle cx="498" cy="189" r="2" fill="#f8d7ae" opacity="0.43"/><circle cx="296" cy="579" r="2" fill="#f8d7ae" opacity="0.50"/><circle cx="50" cy="123" r="1.5" fill="#f8d7ae" opacity="0.49"/><circle cx="611" cy="63" r="2" fill="#f8d7ae" opacity="0.50"/><circle cx="400" cy="379" r="1" fill="#f8d7ae" opacity="0.61"/><circle cx="547" cy="284" r="1.5" fill="#f8d7ae" opacity="0.67"/><circle cx="809" cy="217" r="2" fill="#f8d7ae" opacity="0.70"/><circle cx="500" cy="559" r="2.5" fill="#f8d7ae" opacity="0.38"/><circle cx="939" cy="252" r="2" fill="#f8d7ae" opacity="0.72"/><circle cx="408" cy="564" r="1.5" fill="#f8d7ae" opacity="0.69"/><circle cx="537" cy="545" r="2" fill="#f8d7ae" opacity="0.38"/><circle cx="71" cy="112" r="1.5" fill="#f8d7ae" opacity="0.65"/><circle cx="742" cy="30" r="1.5" fill="#f8d7ae" opacity="0.74"/><circle cx="58" cy="197" r="1" fill="#f8d7ae" opacity="0.79"/><circle cx="696" cy="411" r="1" fill="#f8d7ae" opacity="0.76"/><circle cx="381" cy="500" r="2" fill="#f8d7ae" opacity="0.79"/><circle cx="152" cy="310" r="1" fill="#f8d7ae" opacity="0.54"/><circle cx="865" cy="488" r="2" fill="#f8d7ae" opacity="0.71"/><circle cx="579" cy="587" r="1" fill="#f8d7ae" opacity="0.66"/><circle cx="621" cy="31" r="2.5" fill="#f8d7ae" opacity="0.81"/><circle cx="886" cy="410" r="1.5" fill="#f8d7ae" opacity="0.54"/><circle cx="440" cy="622" r="1" fill="#f8d7ae" opacity="0.44"/><circle cx="489" cy="610" r="2" fill="#f8d7ae" opacity="0.61"/><circle cx="265" cy="483" r="1" fill="#f8d7ae" opacity="0.60"/><circle cx="417" cy="612" r="1.5" fill="#f8d7ae" opacity="0.46"/><circle cx="500" cy="411" r="173" fill="url(#moon)"/><circle cx="525" cy="378" r="124.56" fill="none" stroke="#fff6d8" opacity=".16" stroke-width="2"/><path d="M40 702Q245 568 412 647T721 603T980 549" fill="none" stroke="#f8d7ae" stroke-width="3" opacity=".42" stroke-dasharray="3 14"/><path d="M93.75 555c27.0 -35.1 59.400000000000006 -33.75 74.25 -10.8c27.0 -58.050000000000004 101.25 -51.300000000000004 114.75000000000001 -2.7c32.400000000000006 -18.900000000000002 60.75000000000001 -8.100000000000001 78.30000000000001 13.5c-85.05000000000001 -1.35 -170.10000000000002 -1.35 -267.3 0Z" fill="#ecc0a2" opacity=".38"/><path d="M628.75 602c31.0 -40.300000000000004 68.2 -38.75 85.25 -12.4c31.0 -66.65 116.25 -58.9 131.75 -3.1c37.2 -21.7 69.75 -9.3 89.9 15.5c-97.65 -1.55 -195.3 -1.55 -306.90000000000003 0Z" fill="#f8d7ae" opacity=".38"/><path d="M334.5 768c42.0 -54.6 92.4 -52.5 115.5 -16.8c42.0 -90.3 157.5 -79.8 178.5 -4.2c50.400000000000006 -29.400000000000002 94.5 -12.600000000000001 121.80000000000001 21.0c-132.3 -2.1 -264.6 -2.1 -415.8 0Z" fill="#ecc0a2" opacity=".38"/><path d="M0 875Q250 823 500 879T1000 852V1000H0Z" fill="#8d5d74" opacity=".5"/><text x="500" y="912" text-anchor="middle" font-family="Noto Serif CJK SC,Source Han Serif SC,serif" font-size="42" letter-spacing="9" fill="#f8d7ae">星河·良辰</text><text x="500" y="952" text-anchor="middle" font-family="serif" font-size="15" letter-spacing="6" fill="#ecc0a2">MID-AUTUMN · 098</text></svg>